<?xml version="1.0" encoding="UTF-8"?>
<svg version="1.1" xmlns="http://www.w3.org/2000/svg" width="1080" height="1080">
<path d="M0 0 C356.4 0 712.8 0 1080 0 C1080 356.4 1080 712.8 1080 1080 C723.6 1080 367.2 1080 0 1080 C0 723.6 0 367.2 0 0 Z " fill="#FEFEFE" transform="translate(0,0)"/>
<path d="M0 0 C-3.06117568 2.62386487 -3.73173127 3 -8 3 C-8 3.66 -8 4.32 -8 5 C-13.29411765 9 -13.29411765 9 -17 9 C-17 9.66 -17 10.32 -17 11 C-18.64453125 12.69140625 -18.64453125 12.69140625 -20.8125 14.5625 C-21.52019531 15.18253906 -22.22789062 15.80257813 -22.95703125 16.44140625 C-25 18 -25 18 -28 19 C-29.60907108 21.37612865 -29.60907108 21.37612865 -31 24 C-31.66 24.99 -32.32 25.98 -33 27 C-20.01623014 29.06141728 -7.2752091 29.29460524 5.84765625 29.265625 C8.03413435 29.26697693 10.22061215 29.26892181 12.40708923 29.27142334 C16.96990852 29.27435418 21.53264895 29.2701461 26.09545898 29.26074219 C31.87493014 29.24939678 37.65421443 29.25588914 43.43367863 29.26788712 C47.94595176 29.27520216 52.45818248 29.27277339 56.97045708 29.26763153 C59.09779318 29.26631901 61.22513344 29.26785609 63.35246468 29.27259064 C75.39686258 29.2935088 87.26078219 28.93160174 99.24166203 27.6100502 C105.04629795 27.00550731 110.21838022 27.16030229 116 28 C117.28832803 32.18161416 116.39961715 33.88119113 114.3515625 37.76953125 C113.76197754 38.89963623 113.17239258 40.02974121 112.56494141 41.1940918 C111.91885637 42.40052906 111.27219933 43.60666015 110.625 44.8125 C109.97909387 46.03591813 109.33374958 47.25963306 108.68896484 48.48364258 C104.08911607 57.16889192 99.25824545 65.69531076 94 74 C93.67 73.01 93.34 72.02 93 71 C91.68 72.98 90.36 74.96 89 77 C89.66 77 90.32 77 91 77 C89.73682994 80.39758165 88.29278669 83.30440708 86.26953125 86.30859375 C85.72055176 87.1281958 85.17157227 87.94779785 84.60595703 88.79223633 C84.01411621 89.66517334 83.42227539 90.53811035 82.8125 91.4375 C82.2026123 92.34459717 81.59272461 93.25169434 80.96435547 94.1862793 C78.98266852 97.12859339 76.99274723 100.06516647 75 103 C74.2982666 104.03350586 73.5965332 105.06701172 72.87353516 106.13183594 C68.59359276 112.42892018 64.30201045 118.71797332 60 125 C59.67 124.01 59.34 123.02 59 122 C57.89163577 123.88316159 57.89163577 123.88316159 57 126 C57.33 126.66 57.66 127.32 58 128 C56.25713707 130.5882144 54.50446624 133.16963999 52.75 135.75 C52.01330078 136.84441406 52.01330078 136.84441406 51.26171875 137.9609375 C48.7539419 141.63901021 46.32299959 144.99347656 43 148 C42.67 147.01 42.34 146.02 42 145 C41.67 145.99 41.34 146.98 41 148 C37.48213761 147.73554531 36.24493919 147.26274505 33.796875 144.63671875 C33.12140625 143.66347656 32.4459375 142.69023438 31.75 141.6875 C31.06421875 140.72199219 30.3784375 139.75648438 29.671875 138.76171875 C28.20275256 136.3349207 27.61903144 134.69426065 27 132 C25.8553125 130.88625 25.8553125 130.88625 24.6875 129.75 C22.32366262 127.33118966 21.36024092 125.95366599 20 123 C18.25264103 119.23645761 16.06619443 116.83033332 13 114 C10.59278837 111.40761824 9.67537437 109.08478977 8.6875 105.75 C7.33089961 101.38590985 5.26795898 98.33337166 2.4296875 94.7890625 C-2 89.24590164 -2 89.24590164 -2 86 C-2.66 86 -3.32 86 -4 86 C-4.98219627 84.23084525 -5.96065359 82.45961431 -6.9375 80.6875 C-7.75541016 79.20830078 -7.75541016 79.20830078 -8.58984375 77.69921875 C-10 75 -10 75 -11 72 C-12.12148438 71.66162109 -12.12148438 71.66162109 -13.265625 71.31640625 C-17.43541698 69.30894926 -18.68228483 65.94781648 -20.75 61.9375 C-21.38591064 60.74640625 -21.38591064 60.74640625 -22.03466797 59.53125 C-22.92055888 57.86786418 -23.79985062 56.20094867 -24.67285156 54.53076172 C-25.97808837 52.04178365 -27.30880209 49.56826267 -28.6484375 47.09765625 C-29.47466836 45.56548684 -30.30021665 44.0329491 -31.125 42.5 C-31.51526367 41.77675537 -31.90552734 41.05351074 -32.30761719 40.30834961 C-35 35.23231544 -35 35.23231544 -35 33 C-35.66 33 -36.32 33 -37 33 C-37.34274406 34.66475686 -37.67364302 36.33195323 -38 38 C-38.185625 38.928125 -38.37125 39.85625 -38.5625 40.8125 C-39.50129096 47.65226269 -39.06952845 53.44895108 -37.0625 60 C-36.84867676 60.69843018 -36.63485352 61.39686035 -36.41455078 62.11645508 C-34.52336714 67.64348769 -31.88864943 70.89019777 -27.0859375 74.32421875 C-24.66570356 76.26856399 -23.45464348 78.28065056 -22 81 C-27.78230057 79.03241161 -30.92674431 75.3872186 -35 71 C-35.50144531 70.49082031 -36.00289063 69.98164062 -36.51953125 69.45703125 C-39.76312655 65.95865203 -41.11054099 62.43605756 -42.421875 57.953125 C-42.95395522 55.94629003 -42.95395522 55.94629003 -44 54 C-44.039992 52.00039988 -44.04346799 49.99952758 -44 48 C-43.67 48 -43.34 48 -43 48 C-43 46.02 -43 44.04 -43 42 C-43.33 42 -43.66 42 -44 42 C-43.57886398 34.41955168 -41.48756804 27.57211514 -36.06640625 22.01953125 C-34.70764887 20.85598287 -33.32753632 19.71684141 -31.92578125 18.60546875 C-30.0592568 17.0494007 -28.66743922 15.48060854 -27.1875 13.5625 C-26.1046875 12.2940625 -26.1046875 12.2940625 -25 11 C-24.01 11 -23.02 11 -22 11 C-22 10.34 -22 9.68 -22 9 C-16.68610617 4.76966552 -6.80142267 -2.52713411 0 0 Z " fill="#FDFCFD" transform="translate(505,456)"/>
<path d="M0 0 C-3.06117568 2.62386487 -3.73173127 3 -8 3 C-8 3.66 -8 4.32 -8 5 C-13.29411765 9 -13.29411765 9 -17 9 C-17 9.66 -17 10.32 -17 11 C-18.64453125 12.69140625 -18.64453125 12.69140625 -20.8125 14.5625 C-21.52019531 15.18253906 -22.22789062 15.80257813 -22.95703125 16.44140625 C-25 18 -25 18 -28 19 C-29.60907108 21.37612865 -29.60907108 21.37612865 -31 24 C-31.66 24.99 -32.32 25.98 -33 27 C3.11399063 31.81684765 39.05518059 33.36121327 75.39477539 30.71655273 C84.6246389 30.04611283 93.74803603 29.75254777 103 30 C99.67647806 32.2156813 96.90143558 33.01564324 93.05859375 34.09375 C92.03512596 34.38203674 92.03512596 34.38203674 90.99098206 34.67614746 C89.54508394 35.08208735 88.09844178 35.48538506 86.65112305 35.88623047 C84.4679185 36.49156589 82.28756411 37.10639481 80.10742188 37.72265625 C73.47990257 39.58199273 66.87675142 41.32588877 60.10375977 42.58349609 C56.92621249 43.21258924 53.85047282 44.13165028 50.75 45.0625 C38.57023325 48.71367442 38.57023325 48.71367442 33.875 46.3125 C29.03287262 44.20256266 24.35026435 43.18426864 19.1875 42.25 C8.97402842 40.38130784 -0.95137281 37.62614061 -10.91137695 34.72949219 C-17.3169381 32.89444943 -23.34822231 31.47869936 -30 31 C-26.41633036 34.78154504 -22.05311007 36.87817772 -17.51953125 39.37890625 C-16.68808594 39.91386719 -15.85664063 40.44882812 -15 41 C-15 41.66 -15 42.32 -15 43 C-14.48179687 43.23074219 -13.96359375 43.46148437 -13.4296875 43.69921875 C-10.13274877 45.4643001 -7.15268885 47.63012131 -4.125 49.8125 C-3.52558594 50.23853516 -2.92617188 50.66457031 -2.30859375 51.10351562 C4.18887177 55.76167691 9.74977365 60.52618828 14.625 66.875 C15.0890625 67.46152344 15.553125 68.04804687 16.03125 68.65234375 C21.3055901 75.43150969 24.58240594 82.02832911 27.125 90.1875 C27.62484035 91.7652012 28.12735655 93.34205767 28.6328125 94.91796875 C28.84824707 95.60656982 29.06368164 96.2951709 29.28564453 97.00463867 C30.0369409 99.10318454 30.98496757 101.01767117 32 103 C32.54747405 104.5114475 33.0681474 106.032854 33.5625 107.5625 C33.81128906 108.32691406 34.06007813 109.09132813 34.31640625 109.87890625 C34.54199219 110.57886719 34.76757812 111.27882813 35 112 C35.33 112.99 35.66 113.98 36 115 C36.1545083 117.12305845 36.27465742 119.24869302 36.375 121.375 C36.76169304 127.49869629 37.80042774 133.14131744 39.37890625 139.0625 C40.02614272 142.12364353 40.10676459 144.88061717 40 148 C36.88746312 147.69923801 36.0183979 147.0206507 33.89453125 144.63671875 C32.86392578 143.17685547 32.86392578 143.17685547 31.8125 141.6875 C30.77029297 140.23923828 30.77029297 140.23923828 29.70703125 138.76171875 C28.2003702 136.32416873 27.61878617 134.71908924 27 132 C25.8553125 130.88625 25.8553125 130.88625 24.6875 129.75 C22.32366262 127.33118966 21.36024092 125.95366599 20 123 C18.25264103 119.23645761 16.06619443 116.83033332 13 114 C10.59278837 111.40761824 9.67537437 109.08478977 8.6875 105.75 C7.33089961 101.38590985 5.26795898 98.33337166 2.4296875 94.7890625 C-2 89.24590164 -2 89.24590164 -2 86 C-2.66 86 -3.32 86 -4 86 C-4.98219627 84.23084525 -5.96065359 82.45961431 -6.9375 80.6875 C-7.75541016 79.20830078 -7.75541016 79.20830078 -8.58984375 77.69921875 C-10 75 -10 75 -11 72 C-12.12148438 71.66162109 -12.12148438 71.66162109 -13.265625 71.31640625 C-17.43541698 69.30894926 -18.68228483 65.94781648 -20.75 61.9375 C-21.38591064 60.74640625 -21.38591064 60.74640625 -22.03466797 59.53125 C-22.92055888 57.86786418 -23.79985062 56.20094867 -24.67285156 54.53076172 C-25.97808837 52.04178365 -27.30880209 49.56826267 -28.6484375 47.09765625 C-29.47466836 45.56548684 -30.30021665 44.0329491 -31.125 42.5 C-31.51526367 41.77675537 -31.90552734 41.05351074 -32.30761719 40.30834961 C-35 35.23231544 -35 35.23231544 -35 33 C-35.66 33 -36.32 33 -37 33 C-37.34274406 34.66475686 -37.67364302 36.33195323 -38 38 C-38.185625 38.928125 -38.37125 39.85625 -38.5625 40.8125 C-39.50129096 47.65226269 -39.06952845 53.44895108 -37.0625 60 C-36.84867676 60.69843018 -36.63485352 61.39686035 -36.41455078 62.11645508 C-34.52336714 67.64348769 -31.88864943 70.89019777 -27.0859375 74.32421875 C-24.66570356 76.26856399 -23.45464348 78.28065056 -22 81 C-27.78230057 79.03241161 -30.92674431 75.3872186 -35 71 C-35.50144531 70.49082031 -36.00289063 69.98164062 -36.51953125 69.45703125 C-39.76312655 65.95865203 -41.11054099 62.43605756 -42.421875 57.953125 C-42.95395522 55.94629003 -42.95395522 55.94629003 -44 54 C-44.039992 52.00039988 -44.04346799 49.99952758 -44 48 C-43.67 48 -43.34 48 -43 48 C-43 46.02 -43 44.04 -43 42 C-43.33 42 -43.66 42 -44 42 C-43.57886398 34.41955168 -41.48756804 27.57211514 -36.06640625 22.01953125 C-34.70764887 20.85598287 -33.32753632 19.71684141 -31.92578125 18.60546875 C-30.0592568 17.0494007 -28.66743922 15.48060854 -27.1875 13.5625 C-26.1046875 12.2940625 -26.1046875 12.2940625 -25 11 C-24.01 11 -23.02 11 -22 11 C-22 10.34 -22 9.68 -22 9 C-16.68610617 4.76966552 -6.80142267 -2.52713411 0 0 Z " fill="#FCD1FB" transform="translate(505,456)"/>
<path d="M0 0 C1.28832803 4.18161416 0.39961715 5.88119113 -1.6484375 9.76953125 C-2.23802246 10.89963623 -2.82760742 12.02974121 -3.43505859 13.1940918 C-4.08114363 14.40052906 -4.72780067 15.60666015 -5.375 16.8125 C-6.02090613 18.03591813 -6.66625042 19.25963306 -7.31103516 20.48364258 C-11.91088393 29.16889192 -16.74175455 37.69531076 -22 46 C-22.33 45.01 -22.66 44.02 -23 43 C-24.32 44.98 -25.64 46.96 -27 49 C-26.34 49 -25.68 49 -25 49 C-26.26317006 52.39758165 -27.70721331 55.30440708 -29.73046875 58.30859375 C-30.27944824 59.1281958 -30.82842773 59.94779785 -31.39404297 60.79223633 C-32.2818042 62.10164185 -32.2818042 62.10164185 -33.1875 63.4375 C-33.7973877 64.34459717 -34.40727539 65.25169434 -35.03564453 66.1862793 C-37.01733148 69.12859339 -39.00725277 72.06516647 -41 75 C-41.7017334 76.03350586 -42.4034668 77.06701172 -43.12646484 78.13183594 C-47.40640724 84.42892018 -51.69798955 90.71797332 -56 97 C-56.33 96.01 -56.66 95.02 -57 94 C-58.10836423 95.88316159 -58.10836423 95.88316159 -59 98 C-58.67 98.66 -58.34 99.32 -58 100 C-59.74286293 102.5882144 -61.49553376 105.16963999 -63.25 107.75 C-63.74113281 108.47960937 -64.23226562 109.20921875 -64.73828125 109.9609375 C-67.2460581 113.63901021 -69.67700041 116.99347656 -73 120 C-73.33 119.01 -73.66 118.02 -74 117 C-74.495 118.485 -74.495 118.485 -75 120 C-74.85775413 117.47891897 -74.71129879 114.95819597 -74.5625 112.4375 C-74.52318359 111.73302734 -74.48386719 111.02855469 -74.44335938 110.30273438 C-73.68761489 97.68761489 -73.68761489 97.68761489 -72 96 C-71.86111655 94.23155074 -71.76631194 92.45964279 -71.6875 90.6875 C-70.19177656 69.46692374 -65.13304134 45.9700767 -49 31 C-38.02456855 21.57930744 -25.63567852 14.36278182 -13.10620117 7.22998047 C-11.3670334 6.21434036 -9.67575618 5.11717079 -8 4 C-10.64 4 -13.28 4 -16 4 C-16 3.67 -16 3.34 -16 3 C-25.5089707 2.86937978 -34.83181567 3.2690966 -44.3125 4 C-69.27143247 5.78140855 -94.09096543 5.58188753 -119 3 C-119 2.67 -119 2.34 -119 2 C-117.44169716 1.98786972 -117.44169716 1.98786972 -115.85191345 1.97549438 C-105.95501452 1.89726113 -96.0582402 1.809344 -86.1615057 1.71247292 C-81.07620281 1.66299401 -75.99091603 1.61666953 -70.90551758 1.578125 C-43.24301347 1.60529185 -43.24301347 1.60529185 -15.68016052 -0.40829468 C-10.24178352 -1.04204628 -5.43111242 -0.77022188 0 0 Z " fill="#FCEEFB" transform="translate(621,484)"/>
<path d="M0 0 C6.03523728 3.27408894 12.05469543 6.56493514 18 10 C18 10.66 18 11.32 18 12 C18.51820313 12.23074219 19.03640625 12.46148437 19.5703125 12.69921875 C22.86725123 14.4643001 25.84731115 16.63012131 28.875 18.8125 C29.47441406 19.23853516 30.07382812 19.66457031 30.69140625 20.10351562 C37.18887177 24.76167691 42.74977365 29.52618828 47.625 35.875 C48.0890625 36.46152344 48.553125 37.04804687 49.03125 37.65234375 C54.3055901 44.43150969 57.58240594 51.02832911 60.125 59.1875 C60.62484035 60.7652012 61.12735655 62.34205767 61.6328125 63.91796875 C61.84824707 64.60656982 62.06368164 65.2951709 62.28564453 66.00463867 C63.0369409 68.10318454 63.98496757 70.01767117 65 72 C65.54747405 73.5114475 66.0681474 75.032854 66.5625 76.5625 C66.81128906 77.32691406 67.06007813 78.09132813 67.31640625 78.87890625 C67.54199219 79.57886719 67.76757812 80.27882813 68 81 C68.33 81.99 68.66 82.98 69 84 C69.20244766 86.28878326 69.36422048 88.58129605 69.5 90.875 C69.78437775 95.77340001 69.78437775 95.77340001 70.52734375 100.61328125 C71.04694485 103.23705211 71.09812123 105.64090787 71.0625 108.3125 C71.05347656 109.19550781 71.04445313 110.07851563 71.03515625 110.98828125 C71.02355469 111.65214844 71.01195312 112.31601562 71 113 C68.03679009 109.40906961 66.10174127 105.46478365 64.0625 101.3125 C63.72798828 100.64283203 63.39347656 99.97316406 63.04882812 99.28320312 C61.32958786 95.81490917 59.70838686 92.33256427 58.1953125 88.76953125 C55.52929227 82.71748973 52.14781123 77.07659617 48.8125 71.375 C48.13283109 70.20914979 47.45330759 69.0432148 46.77392578 67.87719727 C45.44435061 65.59730221 44.11141544 63.31947208 42.77685547 61.04248047 C41.32637106 58.5588398 39.89309637 56.06726527 38.47265625 53.56640625 C33.23024675 44.43228282 27.01560124 36.21463143 20.51318359 27.94238281 C18.39694073 25.22588907 16.3565542 22.458731 14.3125 19.6875 C10.37705089 14.39878307 6.17379138 9.38878087 1.87109375 4.3984375 C0 2 0 2 0 0 Z " fill="#FD94F6" transform="translate(472,487)"/>
<path d="M0 0 C4.89668513 2.4537473 7.73771706 6.47979252 9.83203125 11.38671875 C11.05525235 15.84921053 11.25565875 19.18644084 9.70703125 23.57421875 C5.54162327 29.82233072 3.33761665 32.76649116 -3.984375 34.74609375 C-6.21677769 35.40103837 -8.10588078 36.32116283 -10.16796875 37.38671875 C-14.44202184 38.65738318 -17.84816624 38.48497362 -22.16796875 37.38671875 C-26.53344842 34.78190215 -30.50737097 31.78361574 -33.16796875 27.38671875 C-32.67296875 25.90171875 -32.67296875 25.90171875 -32.16796875 24.38671875 C-31.6059375 24.71414063 -31.04390625 25.0415625 -30.46484375 25.37890625 C-27.89936911 26.50457369 -26.19954598 26.59352985 -23.41796875 26.51171875 C-22.21914063 26.48464844 -22.21914063 26.48464844 -20.99609375 26.45703125 C-20.3928125 26.43382812 -19.78953125 26.410625 -19.16796875 26.38671875 C-18.74926322 24.05599996 -18.74926322 24.05599996 -19.16796875 21.38671875 C-19.97234375 20.76796875 -20.77671875 20.14921875 -21.60546875 19.51171875 C-24.16796875 17.38671875 -24.16796875 17.38671875 -25.16796875 13.94921875 C-25.16796875 8.59011781 -23.18362089 6.5039361 -19.66796875 2.63671875 C-14.55139971 -1.96819339 -6.44293898 -1.82259715 0 0 Z " fill="#D19FFB" transform="translate(555.16796875,432.61328125)"/>
<path d="M0 0 C10.99068201 -0.20802553 21.80157442 -0.03221668 32.75 1 C54.96709234 2.99457797 77.17637581 2.33584612 99.39135742 0.71630859 C108.62245089 0.04699553 117.74685175 -0.24748391 127 0 C123.67647806 2.2156813 120.90143558 3.01564324 117.05859375 4.09375 C116.03512596 4.38203674 116.03512596 4.38203674 114.99098206 4.67614746 C113.54508394 5.08208735 112.09844178 5.48538506 110.65112305 5.88623047 C108.4679185 6.49156589 106.28756411 7.10639481 104.10742188 7.72265625 C97.47990257 9.58199273 90.87675142 11.32588877 84.10375977 12.58349609 C80.92621249 13.21258924 77.85047282 14.13165028 74.75 15.0625 C62.57023325 18.71367442 62.57023325 18.71367442 57.875 16.3125 C53.0841521 14.22707209 48.48208456 13.22562886 43.375 12.3125 C33.66173553 10.54357874 24.23444123 7.95671341 14.75 5.25 C14.01916199 5.04146393 13.28832397 4.83292786 12.53533936 4.61807251 C8.35391365 3.42224566 4.17574809 2.21552712 0 1 C0 0.67 0 0.34 0 0 Z " fill="#FCB1F9" transform="translate(481,486)"/>
<path d="M0 0 C6.15235771 5.99460495 10.50440622 11.53404813 10.8125 20.375 C10.56117512 27.59785859 7.46057139 34.19148652 2.4375 39.375 C-5.60149181 44.95483689 -12.86159889 46.23024317 -22.5625 45.375 C-30.84482643 43.25982125 -36.63805338 37.7675367 -41.0625 30.625 C-42.5625 27.375 -42.5625 27.375 -41.5625 24.375 C-39.39514747 24.83943268 -37.6725283 25.31050065 -35.75 26.4375 C-32.66421663 27.75997859 -29.87772068 27.50250849 -26.5625 27.375 C-26.69284494 25.50446603 -26.69284494 25.50446603 -27.5625 23.375 C-28.8 22.4778125 -28.8 22.4778125 -30.0625 21.5625 C-32.5625 19.375 -32.5625 19.375 -33.5625 16.0625 C-33.5625 11.5585492 -32.91728333 9.22828182 -30.5625 5.375 C-22.05892695 -1.58580817 -10.33127864 -4.71251306 0 0 Z M-28.3125 6.5625 C-30.79119456 9.6608682 -31.54950857 11.5500634 -31.84375 15.44140625 C-31.3521493 18.82116107 -29.13108113 20.35682912 -26.5625 22.375 C-25.5625 23.375 -25.5625 23.375 -25.5 25.9375 C-25.520625 26.741875 -25.54125 27.54625 -25.5625 28.375 C-34.97252278 28.7440205 -34.97252278 28.7440205 -39.5625 26.375 C-38.96910732 31.51773658 -35.18912338 34.98758594 -31.4375 38.1875 C-27.03112958 40.00752257 -22.32648312 40.714231 -17.5625 40.375 C-15.97916667 38.95833333 -15.97916667 38.95833333 -14.5625 37.375 C-12.4765625 36.8203125 -12.4765625 36.8203125 -10.1875 36.5 C-5.61258728 35.6028129 -3.55312255 34.04919341 -0.5625 30.375 C0.18 29.6325 0.9225 28.89 1.6875 28.125 C4.16312611 24.2347304 4.86519003 20.97085558 4.4375 16.375 C2.49072135 10.52608794 -0.17387482 5.63653629 -5.5625 2.375 C-8.72259533 1.32163489 -11.1178136 1.17467112 -14.4375 1.125 C-15.46617187 1.09921875 -16.49484375 1.0734375 -17.5546875 1.046875 C-22.13709225 1.5467737 -24.7757531 3.7491786 -28.3125 6.5625 Z " fill="#F8F5F9" transform="translate(561.5625,430.625)"/>
<path d="M0 0 C-3.06117568 2.62386487 -3.73173127 3 -8 3 C-8 3.66 -8 4.32 -8 5 C-13.29411765 9 -13.29411765 9 -17 9 C-17 9.66 -17 10.32 -17 11 C-18.64453125 12.69140625 -18.64453125 12.69140625 -20.8125 14.5625 C-21.52019531 15.18253906 -22.22789062 15.80257813 -22.95703125 16.44140625 C-25 18 -25 18 -28 19 C-29.60907108 21.37612865 -29.60907108 21.37612865 -31 24 C-31.66 24.99 -32.32 25.98 -33 27 C-27.72 27.66 -22.44 28.32 -17 29 C-17 29.33 -17 29.66 -17 30 C-21.95 30.66 -26.9 31.32 -32 32 C-30.51519987 37.19680046 -29.02028613 41.33291082 -26.70703125 46.08203125 C-26.47371094 46.71496094 -26.24039062 47.34789062 -26 48 C-26.33 48.66 -26.66 49.32 -27 50 C-28.33838733 47.54429825 -29.67086232 45.08570084 -31 42.625 C-31.3815625 41.92632812 -31.763125 41.22765625 -32.15625 40.5078125 C-35 35.2265625 -35 35.2265625 -35 33 C-35.66 33 -36.32 33 -37 33 C-37.34274406 34.66475686 -37.67364302 36.33195323 -38 38 C-38.185625 38.928125 -38.37125 39.85625 -38.5625 40.8125 C-39.50129096 47.65226269 -39.06952845 53.44895108 -37.0625 60 C-36.84867676 60.69843018 -36.63485352 61.39686035 -36.41455078 62.11645508 C-34.52336714 67.64348769 -31.88864943 70.89019777 -27.0859375 74.32421875 C-24.66570356 76.26856399 -23.45464348 78.28065056 -22 81 C-27.78230057 79.03241161 -30.92674431 75.3872186 -35 71 C-35.50144531 70.49082031 -36.00289063 69.98164062 -36.51953125 69.45703125 C-39.76312655 65.95865203 -41.11054099 62.43605756 -42.421875 57.953125 C-42.95395522 55.94629003 -42.95395522 55.94629003 -44 54 C-44.039992 52.00039988 -44.04346799 49.99952758 -44 48 C-43.67 48 -43.34 48 -43 48 C-43 46.02 -43 44.04 -43 42 C-43.33 42 -43.66 42 -44 42 C-43.57886398 34.41955168 -41.48756804 27.57211514 -36.06640625 22.01953125 C-34.70764887 20.85598287 -33.32753632 19.71684141 -31.92578125 18.60546875 C-30.0592568 17.0494007 -28.66743922 15.48060854 -27.1875 13.5625 C-26.1046875 12.2940625 -26.1046875 12.2940625 -25 11 C-24.01 11 -23.02 11 -22 11 C-22 10.34 -22 9.68 -22 9 C-16.68610617 4.76966552 -6.80142267 -2.52713411 0 0 Z " fill="#E8D8F2" transform="translate(505,456)"/>
<path d="M0 0 C10.12566214 -0.68424246 19.63707608 1.39890042 29.5 3.375 C31.13913519 3.69627179 32.7784575 4.01659036 34.41796875 4.3359375 C37.55535775 4.94820844 40.69236397 5.56235656 43.82885742 6.17919922 C44.90011368 6.38968903 44.90011368 6.38968903 45.99301147 6.60443115 C47.78008676 6.95665604 49.56648426 7.31231587 51.3527832 7.66845703 C56.36569308 8.63493542 61.05706337 9.23533197 66.1875 9.125 C67.29480469 9.10695313 68.40210938 9.08890625 69.54296875 9.0703125 C70.75919922 9.03550781 70.75919922 9.03550781 72 9 C72.495 11.475 72.495 11.475 73 14 C69.30513052 16.49947053 66.49544335 17.91518031 62 18 C60.60467377 17.49000396 59.23158083 16.91807387 57.875 16.3125 C53.0841521 14.22707209 48.48208456 13.22562886 43.375 12.3125 C33.66173553 10.54357874 24.23444123 7.95671341 14.75 5.25 C14.01916199 5.04146393 13.28832397 4.83292786 12.53533936 4.61807251 C8.35391365 3.42224566 4.17574809 2.21552712 0 1 C0 0.67 0 0.34 0 0 Z " fill="#FD73ED" transform="translate(481,486)"/>
<path d="M0 0 C4.16253439 1.74021921 5.38761207 3.71259334 7.24609375 7.69921875 C8.64226609 11.9600763 9.04103801 16.91792397 7 21 C6.34 21 5.68 21 5 21 C4.814375 22.299375 4.62875 23.59875 4.4375 24.9375 C3.14277727 30.80999237 -0.07211785 34.5864578 -4 39 C-4.46019531 39.56460938 -4.92039062 40.12921875 -5.39453125 40.7109375 C-6.625 42.125 -6.625 42.125 -9 44 C-11.8125 43.8125 -11.8125 43.8125 -14 43 C-14.33 43.99 -14.66 44.98 -15 46 C-15.99 45.67 -16.98 45.34 -18 45 C-17.28714844 44.32195313 -16.57429687 43.64390625 -15.83984375 42.9453125 C-3.49346822 31.36256653 -3.49346822 31.36256653 2.265625 16.02734375 C2.26046875 15.00769531 2.2553125 13.98804688 2.25 12.9375 C2.25515625 11.91527344 2.2603125 10.89304687 2.265625 9.83984375 C1.9999031 6.99896407 1.33666751 5.46646981 0 3 C0 2.01 0 1.02 0 0 Z " fill="#D4BCEB" transform="translate(617,515)"/>
<path d="M0 0 C6.72986794 -0.08018418 13.38222125 0.1339198 20.09375 0.62109375 C21.00709106 0.68531021 21.92043213 0.74952667 22.8614502 0.81568909 C24.77071513 0.95096243 26.67985447 1.08801941 28.58886719 1.22680664 C31.51979965 1.438933 34.4512408 1.64262409 37.3828125 1.84570312 C39.24482772 1.97866279 41.1068083 2.11210856 42.96875 2.24609375 C44.28425842 2.33678383 44.28425842 2.33678383 45.62634277 2.42930603 C51.77039218 2.88519609 51.77039218 2.88519609 54 4 C54 4.66 54 5.32 54 6 C54.99 6 55.98 6 57 6 C57 6.99 57 7.98 57 9 C57.99 9.33 58.98 9.66 60 10 C48.41956305 10.86475803 37.36314973 8.27413011 26.0625 6.0625 C24.0880823 5.68454421 22.11347387 5.30758332 20.13867188 4.93164062 C13.42033904 3.64885285 6.70493524 2.35128253 0 1 C0 0.67 0 0.34 0 0 Z " fill="#FD9DF6" transform="translate(492,486)"/>
<path d="M0 0 C-0.66 0.99 -1.32 1.98 -2 3 C-4.625 3.1875 -4.625 3.1875 -7 3 C-7 2.67 -7 2.34 -7 2 C-16.5089707 1.86937978 -25.83181567 2.2690966 -35.3125 3 C-60.27143247 4.78140855 -85.09096543 4.58188753 -110 2 C-110 1.67 -110 1.34 -110 1 C-99.05385417 0.86799663 -88.10769133 0.73751132 -77.1615057 0.60884857 C-72.07616747 0.54902967 -66.99083597 0.48873037 -61.90551758 0.42724609 C-18.655964 -0.09501517 -18.655964 -0.09501517 0 0 Z " fill="#F2E5F2" transform="translate(612,485)"/>
<path d="M0 0 C-4.62134045 3.08089363 -9.81113231 4.12933472 -15.125 5.625 C-16.2284375 5.94984375 -17.331875 6.2746875 -18.46875 6.609375 C-24.86657048 8.41778506 -30.35358723 9.37939354 -37 9 C-36.74438677 6.6568787 -36.40729228 4.32156597 -36 2 C-32.97076078 0.48538039 -29.76872901 0.61729702 -26.4375 0.4375 C-25.69185791 0.3950415 -24.94621582 0.35258301 -24.17797852 0.30883789 C-16.11852331 -0.11010879 -8.0674744 -0.09087268 0 0 Z " fill="#F07CF7" transform="translate(608,486)"/>
<path d="M0 0 C3.31102875 2.28093092 5.77550451 4.10387798 7 8 C7.0777346 10.33203812 7.08967728 12.66839059 7 15 C5.92417776 13.38626664 4.86492323 11.75725334 3.921875 10.0625 C1.27702906 5.40757115 -0.64277778 2.55846465 -6 1 C-14.0541327 0.23398194 -18.73410123 0.80057592 -25.25 5.6875 C-27.69913003 8.9238504 -28.50655449 11.94756407 -28 16 C-25.77023837 18.98119541 -25.77023837 18.98119541 -23 21 C-22 22 -22 22 -21.875 24.5 C-22 27 -22 27 -23 28 C-24.99609375 28.16796875 -24.99609375 28.16796875 -27.4375 28.1875 C-28.64212891 28.20876953 -28.64212891 28.20876953 -29.87109375 28.23046875 C-32 28 -32 28 -34 26 C-30.7 26 -27.4 26 -24 26 C-24.56846959 21.90407026 -24.56846959 21.90407026 -27.5 20.1875 C-30 18 -30 18 -31 14.6875 C-31 10.1835492 -30.35478333 7.85328182 -28 4 C-25.5045027 1.95724951 -22.87159025 0.45282037 -20 -1 C-19.175 -1.433125 -18.35 -1.86625 -17.5 -2.3125 C-10.91014221 -4.12471089 -5.96796736 -3.15288841 0 0 Z " fill="#E3C6FB" transform="translate(559,432)"/>
<path d="M0 0 C-3.06117568 2.62386487 -3.73173127 3 -8 3 C-8 3.66 -8 4.32 -8 5 C-13.29411765 9 -13.29411765 9 -17 9 C-17 9.66 -17 10.32 -17 11 C-20.17144027 14.26587522 -23.63020351 17.24987335 -27.625 19.4375 C-32.21475024 22.45707253 -34.99130235 27.48695352 -38 32 C-38.66 32 -39.32 32 -40 32 C-38.56206611 25.8374262 -36.85553635 22.24562548 -31.7734375 18.41796875 C-29.95492207 16.96395751 -28.6657867 15.46552272 -27.25 13.625 C-26.5075 12.75875 -25.765 11.8925 -25 11 C-24.01 11 -23.02 11 -22 11 C-22 10.34 -22 9.68 -22 9 C-16.68610617 4.76966552 -6.80142267 -2.52713411 0 0 Z " fill="#E0CAF0" transform="translate(505,456)"/>
<path d="M0 0 C0.99 0.33 1.98 0.66 3 1 C2.67 7.27 2.34 13.54 2 20 C2.99 20 3.98 20 5 20 C5.18433594 20.7734375 5.36867188 21.546875 5.55859375 22.34375 C7.5778777 29.59522304 9.84445218 33.63485687 15.87890625 38.18359375 C18.25098336 40.2149305 19.53087518 42.263579 21 45 C15.21769943 43.03241161 12.07325569 39.3872186 8 35 C7.49855469 34.49082031 6.99710937 33.98164062 6.48046875 33.45703125 C3.23687345 29.95865203 1.88945901 26.43605756 0.578125 21.953125 C0.04604478 19.94629003 0.04604478 19.94629003 -1 18 C-1.039992 16.00039988 -1.04346799 13.99952758 -1 12 C-0.67 12 -0.34 12 0 12 C0 10.02 0 8.04 0 6 C-0.33 6 -0.66 6 -1 6 C-1.042721 4.33388095 -1.04063832 2.66617115 -1 1 C-0.67 0.67 -0.34 0.34 0 0 Z " fill="#F3E6F9" transform="translate(462,492)"/>
<path d="M0 0 C8.93752687 -0.49877427 17.00123416 1.00067287 25.6875 3 C26.97333984 3.28617187 28.25917969 3.57234375 29.58398438 3.8671875 C32.72513079 4.56781495 35.86349723 5.27892079 39 6 C38.67 6.99 38.34 7.98 38 9 C29.50001733 9.59714478 22.00835209 7.35651088 13.9375 5 C12.58168715 4.61350498 11.22556892 4.22807952 9.86914062 3.84375 C6.57627808 2.90628024 3.28689743 1.95813427 0 1 C0 0.67 0 0.34 0 0 Z " fill="#CC50FB" transform="translate(481,486)"/>
<path d="M0 0 C16.46719787 1.55273826 16.46719787 1.55273826 23.7890625 5.29296875 C28.78140059 6.88945849 34.06361662 4.43235074 38.875 2.9375 C44.17680797 1.38177881 48.50700724 0.56056058 54 1 C49.52334374 3.32243269 44.86323565 4.98159842 40.125 6.6875 C39.23941406 7.02072266 38.35382812 7.35394531 37.44140625 7.69726562 C32.58190009 9.43901113 29.13902742 10.53492403 24 9 C24 8.34 24 7.68 24 7 C23.02160156 6.81824219 22.04320312 6.63648438 21.03515625 6.44921875 C13.81584611 5.07608552 6.91634383 3.54812667 0 1 C0 0.67 0 0.34 0 0 Z " fill="#F5E7F5" transform="translate(517,497)"/>
<path d="M0 0 C-0.33 0.99 -0.66 1.98 -1 3 C0.98 3 2.96 3 5 3 C-1.64227384 6.61889402 -8.65239111 7.59730628 -16 6 C-16 4.68 -16 3.36 -16 2 C-11.51998442 -0.16774947 -4.69262804 -2.34631402 0 0 Z " fill="#F4B9FB" transform="translate(572,492)"/>
<path d="M0 0 C0.66 1.32 1.32 2.64 2 4 C-1.68616814 8.3005295 -5.45226395 10.32982159 -10.55078125 12.73046875 C-13.83048424 14.43047429 -16.29094469 16.50481748 -19 19 C-19.66 18.67 -20.32 18.34 -21 18 C-18.75233212 14.56934902 -16.48693424 13.07555609 -13 11 C-12.236875 10.236875 -11.47375 9.47375 -10.6875 8.6875 C-7.38985692 5.38985692 -3.77352718 2.72480498 0 0 Z " fill="#F1E7F7" transform="translate(586,571)"/>
<path d="M0 0 C0.33 0.66 0.66 1.32 1 2 C-1.31 5.3 -3.62 8.6 -6 12 C-5.278125 11.278125 -4.55625 10.55625 -3.8125 9.8125 C-1.20833333 7.20833333 1.39583333 4.60416667 4 2 C2.59090858 6.23489098 0.55839653 8.96386062 -2.4375 12.25 C-3.61119141 13.55710937 -3.61119141 13.55710937 -4.80859375 14.890625 C-7 17 -7 17 -10 18 C-10.99 17.67 -11.98 17.34 -13 17 C-13.33 17.99 -13.66 18.98 -14 20 C-14.99 19.67 -15.98 19.34 -17 19 C-16.27554688 18.29875 -15.55109375 17.5975 -14.8046875 16.875 C-9.37268065 11.56314122 -4.28724106 6.31327903 0 0 Z " fill="#E4D1F3" transform="translate(616,541)"/>
<path d="M0 0 C0.99 0.495 0.99 0.495 2 1 C2 1.66 2 2.32 2 3 C2.66 3 3.32 3 4 3 C4.33 2.34 4.66 1.68 5 1 C11.18674196 20.16088045 11.18674196 20.16088045 11 29 C9.66666667 26.33333333 8.33333333 23.66666667 7 21 C6.67 21 6.34 21 6 21 C5.73445312 19.98679687 5.46890625 18.97359375 5.1953125 17.9296875 C4.83864311 16.57809823 4.48186657 15.22653722 4.125 13.875 C3.86396484 12.87726562 3.86396484 12.87726562 3.59765625 11.859375 C2.5368867 7.85202336 1.35567689 3.92047101 0 0 Z " fill="#F5E1F5" transform="translate(529,539)"/>
<path d="M0 0 C4.36548643 1.54610978 8.13075826 3.81154781 12 6.3125 C12.60328125 6.69083984 13.2065625 7.06917969 13.828125 7.45898438 C17.71058516 9.95304302 20.84843688 12.6275887 24 16 C23.34 16.99 22.68 17.98 22 19 C21.50113281 18.52691406 21.00226563 18.05382812 20.48828125 17.56640625 C15.34705164 12.83130609 10.00990943 8.77984476 4.16723633 4.97094727 C2.74575239 4.02773543 1.3680514 3.01916658 0 2 C0 1.34 0 0.68 0 0 Z " fill="#F9E9F8" transform="translate(490,497)"/>
<path d="M0 0 C0.66 0.33 1.32 0.66 2 1 C1.11957031 1.845625 0.23914063 2.69125 -0.66796875 3.5625 C-6.64168002 9.37339314 -11.85312348 14.70721715 -16 22 C-16.66 22 -17.32 22 -18 22 C-16.56132379 15.8342448 -14.85134911 12.24927844 -9.7734375 8.4140625 C-7.97069453 6.97663308 -6.66671737 5.499181 -5.25 3.6875 C-3 1 -3 1 0 0 Z " fill="#CDA4EA" transform="translate(483,466)"/>
<path d="M0 0 C0.79019531 0.00902344 1.58039062 0.01804687 2.39453125 0.02734375 C3.28205078 0.04474609 3.28205078 0.04474609 4.1875 0.0625 C-3.84147255 5.41514837 -13.35563134 6.74475906 -22.8125 6.0625 C-22.8125 5.4025 -22.8125 4.7425 -22.8125 4.0625 C-20.75021534 3.58240738 -18.68766299 3.10346456 -16.625 2.625 C-14.90216797 2.22474609 -14.90216797 2.22474609 -13.14453125 1.81640625 C-8.66538601 0.80295369 -4.60532955 -0.06873626 0 0 Z " fill="#C85BFB" transform="translate(603.8125,485.9375)"/>
<path d="M0 0 C2.38370909 2.38370909 2.29588602 2.9936599 2.3125 6.25 C2.11026911 13.69685495 -1.77381787 18.96828046 -7 24 C-9.96471821 26.24599865 -12.57864239 28.14578027 -16.4375 27.75 C-16.953125 27.5025 -17.46875 27.255 -18 27 C-15.67859006 25.03573005 -14.1185903 24.02835855 -11.125 23.3125 C-6.62355815 21.42189442 -4.4946997 18.10365912 -2 14 C-0.99740493 10.99221479 -0.69685358 8.46179353 -0.4375 5.3125 C-0.35371094 4.31863281 -0.26992188 3.32476562 -0.18359375 2.30078125 C-0.09271484 1.16189453 -0.09271484 1.16189453 0 0 Z " fill="#F7E7FD" transform="translate(566,442)"/>
<path d="M0 0 C19.77006508 -0.40997831 19.77006508 -0.40997831 27 2 C27 3.32 27 4.64 27 6 C18.09 4.35 9.18 2.7 0 1 C0 0.67 0 0.34 0 0 Z " fill="#EA7DF8" transform="translate(492,486)"/>
<path d="M0 0 C8.47845672 0.79945746 16.10838222 1.608975 23.9375 5.1796875 C26.67944263 6.27023286 29.08765058 6.3065631 32 6 C31.67 6.66 31.34 7.32 31 8 C26.55916554 8.17080133 23.90469303 7.96329425 20 6 C18.28123544 5.63459336 16.54984888 5.32573468 14.8125 5.0625 C9.66018005 4.19685485 4.89268849 2.81210685 0 1 C0 0.67 0 0.34 0 0 Z " fill="#FDCFFB" transform="translate(517,497)"/>
<path d="M0 0 C1.10279707 2.94079218 0.85543447 4.94427726 0.25 7.9375 C-0.13256481 10.00301474 -0.13256481 10.00301474 0 12 C2.22976163 14.98119541 2.22976163 14.98119541 5 17 C6 18 6 18 6.125 20.5 C6 23 6 23 5 24 C3.00390625 24.16796875 3.00390625 24.16796875 0.5625 24.1875 C-0.64212891 24.20876953 -0.64212891 24.20876953 -1.87109375 24.23046875 C-4 24 -4 24 -6 22 C-2.7 22 0.6 22 4 22 C3.43153041 17.90407026 3.43153041 17.90407026 0.5 16.1875 C-2 14 -2 14 -3 10.6875 C-3 6.23034285 -2.00558077 3.93093832 0 0 Z " fill="#E9DDF0" transform="translate(531,436)"/>
<path d="M0 0 C0 0.66 0 1.32 0 2 C2.31 2 4.62 2 7 2 C2.68516188 4.31152042 -0.85715874 5.13445355 -5.75 5.0625 C-6.54921875 5.05347656 -7.3484375 5.04445313 -8.171875 5.03515625 C-8.77515625 5.02355469 -9.3784375 5.01195312 -10 5 C-9.6875 3.0625 -9.6875 3.0625 -9 1 C-5.8035914 -0.06546953 -3.34252724 -0.07427838 0 0 Z " fill="#DA89FC" transform="translate(581,490)"/>
<path d="M0 0 C0.66 0 1.32 0 2 0 C2.37125 0.680625 2.7425 1.36125 3.125 2.0625 C4.9209247 4.87611536 6.47286466 6.38479697 9 8.5 C12.06116534 11.07160397 14.22930468 13.34794091 16 17 C9.32657368 14.73289524 4.96139332 9.8195029 1 4.125 C0 2 0 2 0 0 Z " fill="#D2ADF6" transform="translate(467,520)"/>
<path d="M0 0 C0.33 0 0.66 0 1 0 C1.33 3.96 1.66 7.92 2 12 C-2.39718646 10.90070338 -2.79997334 10.44549271 -5.25 6.9375 C-5.77078125 6.20402344 -6.2915625 5.47054687 -6.828125 4.71484375 C-7.21484375 4.14894531 -7.6015625 3.58304688 -8 3 C-7.67 2.34 -7.34 1.68 -7 1 C-2.125 3.75 -2.125 3.75 -1 6 C-0.67 4.02 -0.34 2.04 0 0 Z " fill="#EEE2EE" transform="translate(543,592)"/>
<path d="M0 0 C3.16115776 1.36983503 3.9927092 1.9890638 6 5 C5.72057545 6.67654729 5.37668344 8.34259285 5 10 C5.020625 11.216875 5.04125 12.43375 5.0625 13.6875 C5 17 5 17 3 19 C2.95101562 18.18015625 2.90203125 17.3603125 2.8515625 16.515625 C2.77679687 15.43796875 2.70203125 14.3603125 2.625 13.25 C2.55539062 12.18265625 2.48578125 11.1153125 2.4140625 10.015625 C2.02175562 7.15844658 1.33587101 5.49797019 0 3 C0 2.01 0 1.02 0 0 Z " fill="#E0D1ED" transform="translate(617,515)"/>
<path d="M0 0 C0.66 0 1.32 0 2 0 C6.34696188 4.66987905 9.48920408 10.17495347 12 16 C11.67 16.66 11.34 17.32 11 18 C9.15912001 15.38021769 7.32861565 12.75335419 5.5 10.125 C4.97535156 9.37863281 4.45070313 8.63226562 3.91015625 7.86328125 C3.16572266 6.79013672 3.16572266 6.79013672 2.40625 5.6953125 C1.94541016 5.03547363 1.48457031 4.37563477 1.00976562 3.69580078 C0 2 0 2 0 0 Z " fill="#F4EBF4" transform="translate(503,546)"/>
<path d="M0 0 C1.05638672 0.00451172 2.11277344 0.00902344 3.20117188 0.01367188 C5.78000908 0.02534082 8.35872294 0.04171115 10.9375 0.0625 C9.9475 1.5475 9.9475 1.5475 8.9375 3.0625 C6.3125 3.25 6.3125 3.25 3.9375 3.0625 C3.9375 2.7325 3.9375 2.4025 3.9375 2.0625 C-4.3125 2.0625 -12.5625 2.0625 -21.0625 2.0625 C-21.0625 1.7325 -21.0625 1.4025 -21.0625 1.0625 C-14.00243115 0.12753781 -7.11637765 -0.05836777 0 0 Z " fill="#EED0F0" transform="translate(601.0625,484.9375)"/>
<path d="M0 0 C0.734375 1.64453125 0.734375 1.64453125 1 4 C-0.546875 6.76171875 -0.546875 6.76171875 -2.75 9.6875 C-3.46671875 10.66074219 -4.1834375 11.63398437 -4.921875 12.63671875 C-7 15 -7 15 -10 16 C-8.62567077 11.99153975 -6.7110562 9.23577676 -4 6 C-3.67 5.34 -3.34 4.68 -3 4 C-2.34 4 -1.68 4 -1 4 C-0.67 2.68 -0.34 1.36 0 0 Z " fill="#C894F7" transform="translate(620,537)"/>
<path d="M0 0 C3.85119203 1.28373068 4.4758203 2.79911243 6.625 6.1875 C7.23601562 7.12980469 7.84703125 8.07210937 8.4765625 9.04296875 C10.05281879 12.10252262 10.62702027 14.59782002 11 18 C7.91434503 15.28423427 5.92712681 11.91344172 3.8125 8.4375 C3.44447266 7.84775391 3.07644531 7.25800781 2.69726562 6.65039062 C0 2.25169585 0 2.25169585 0 0 Z " fill="#F4EBF4" transform="translate(491,527)"/>
<path d="M0 0 C0 0.66 0 1.32 0 2 C-1.69810754 3.37898043 -3.46035459 4.67959478 -5.25 5.9375 C-6.22453125 6.62714844 -7.1990625 7.31679688 -8.203125 8.02734375 C-9.12609375 8.67832031 -10.0490625 9.32929687 -11 10 C-12.33757317 10.99432178 -13.6727586 11.99192855 -15 13 C-15.66 12.67 -16.32 12.34 -17 12 C-14.75122423 8.56765803 -12.54146508 7.01219607 -9 5 C-7.16606794 3.68495585 -5.35466968 2.34419739 -3.55078125 0.98828125 C-2 0 -2 0 0 0 Z " fill="#CF96FC" transform="translate(582,577)"/>
<path d="M0 0 C2.72923388 -0.0270817 5.45819637 -0.04687847 8.1875 -0.0625 C8.95642578 -0.07087891 9.72535156 -0.07925781 10.51757812 -0.08789062 C14.48526789 -0.10491934 18.12571234 0.01395885 22 1 C19.82575883 3.50037734 18.26954202 4.43628586 15 5 C14.34 4.01 13.68 3.02 13 2 C9.88389446 1.41407366 9.88389446 1.41407366 6.375 1.3125 C5.18648437 1.24675781 3.99796875 1.18101562 2.7734375 1.11328125 C1.85820313 1.07589844 0.94296875 1.03851563 0 1 C0 0.67 0 0.34 0 0 Z " fill="#EDE6F2" transform="translate(598,484)"/>
<path d="M0 0 C0.99 0.66 1.98 1.32 3 2 C-2.16923077 7.90769231 -2.16923077 7.90769231 -6.375 8.375 C-7.24125 8.25125 -8.1075 8.1275 -9 8 C-7.88625 7.13375 -7.88625 7.13375 -6.75 6.25 C-4.33912357 4.27746474 -2.15957299 2.23955718 0 0 Z " fill="#E3BEFD" transform="translate(542,462)"/>
<path d="M0 0 C2.4375 0.375 2.4375 0.375 5 1 C5.33 1.66 5.66 2.32 6 3 C5.34 3 4.68 3 4 3 C5.2491742 6.45925163 6.67527795 9.14693203 9 12 C8.01 12 7.02 12 6 12 C4.39453125 10.13671875 4.39453125 10.13671875 2.8125 7.6875 C2.28269531 6.88699219 1.75289062 6.08648437 1.20703125 5.26171875 C0 3 0 3 0 0 Z " fill="#EDE5F3" transform="translate(519,455)"/>
<path d="M0 0 C0 0.99 0 1.98 0 3 C1.32 2.67 2.64 2.34 4 2 C3.1875 3.9375 3.1875 3.9375 2 6 C-1 7 -1 7 -4 6 C-4.33 6.99 -4.66 7.98 -5 9 C-5.99 8.67 -6.98 8.34 -8 8 C-5.36 5.36 -2.72 2.72 0 0 Z " fill="#F1E7F6" transform="translate(607,552)"/>
<path d="M0 0 C2.97 0.495 2.97 0.495 6 1 C4.9375 3 4.9375 3 3 5 C-1.37855495 5.46913089 -3.29584707 5.46943529 -7 3 C-5.5459375 2.814375 -5.5459375 2.814375 -4.0625 2.625 C-2.5465625 2.315625 -2.5465625 2.315625 -1 2 C-0.67 1.34 -0.34 0.68 0 0 Z " fill="#F36AF5" transform="translate(520,492)"/>
<path d="M0 0 C-3.06117568 2.62386487 -3.73173127 3 -8 3 C-8 3.66 -8 4.32 -8 5 C-9.65 5.66 -11.3 6.32 -13 7 C-13.33 6.01 -13.66 5.02 -14 4 C-12.42466914 3.13116294 -10.83935491 2.28040932 -9.25 1.4375 C-8.36828125 0.96183594 -7.4865625 0.48617188 -6.578125 -0.00390625 C-3.79298812 -1.07998186 -2.73019786 -1.06528748 0 0 Z " fill="#E7D1F7" transform="translate(505,456)"/>
<path d="M0 0 C2 1 2 1 2.875 3.5 C3.24625 4.655 3.6175 5.81 4 7 C5.06725397 9.36462218 6.16788287 11.70924074 7.29296875 14.046875 C7.52628906 14.69140625 7.75960938 15.3359375 8 16 C7.67 16.66 7.34 17.32 7 18 C5.63336613 15.56876731 4.2816133 13.13113837 2.9375 10.6875 C2.35258789 9.65206055 2.35258789 9.65206055 1.75585938 8.59570312 C0.75962517 6.77074312 -0.12752842 4.88726123 -1 3 C-0.67 2.01 -0.34 1.02 0 0 Z " fill="#F1E8F1" transform="translate(471,488)"/>
<path d="M0 0 C1.77049689 -0.05410687 3.54146849 -0.09284119 5.3125 -0.125 C6.29863281 -0.14820313 7.28476562 -0.17140625 8.30078125 -0.1953125 C11 0 11 0 14 2 C14 2.66 14 3.32 14 4 C12.22773547 3.71715982 10.457212 3.42339502 8.6875 3.125 C7.20830078 2.88136719 7.20830078 2.88136719 5.69921875 2.6328125 C3 2 3 2 0 0 Z " fill="#B851FB" transform="translate(481,486)"/>
<path d="M0 0 C2.32758311 0.93103324 3.74357132 1.65382128 5.25 3.6875 C6.27095909 6.83545718 6.12632947 9.71543368 6 13 C0 4 0 4 0 0 Z " fill="#E9CFFC" transform="translate(560,434)"/>
<path d="M0 0 C0 0.99 0 1.98 0 3 C-3.3 3.33 -6.6 3.66 -10 4 C-10 3.01 -10 2.02 -10 1 C-6.78548731 -0.60725635 -3.56387464 -0.05748185 0 0 Z " fill="#F88FF7" transform="translate(582,487)"/>
<path d="M0 0 C-3.41211416 2.27474277 -5.6568529 2.56629644 -9.6875 3.125 C-10.86699219 3.29257812 -12.04648437 3.46015625 -13.26171875 3.6328125 C-14.16535156 3.75398438 -15.06898438 3.87515625 -16 4 C-14 1 -14 1 -11.9375 0.3125 C-7.95069539 -0.11162815 -4.0049784 -0.07852899 0 0 Z " fill="#C756FC" transform="translate(608,486)"/>
<path d="M0 0 C0.33 0 0.66 0 1 0 C1 1.98 1 3.96 1 6 C1.66 6 2.32 6 3 6 C2.01 8.97 1.02 11.94 0 15 C-0.33 15 -0.66 15 -1 15 C-1.18451025 4.44191344 -1.18451025 4.44191344 0 0 Z " fill="#FDCDFC" transform="translate(549,586)"/>
<path d="M0 0 C2.97 0.33 5.94 0.66 9 1 C10 5 10 5 8.5625 7.75 C7.7890625 8.86375 7.7890625 8.86375 7 10 C5.66667905 7.3333581 6.32897967 5.83319697 7 3 C4.69 2.34 2.38 1.68 0 1 C0 0.67 0 0.34 0 0 Z " fill="#F3F0F4" transform="translate(612,483)"/>
<path d="M0 0 C3.96 0.33 7.92 0.66 12 1 C12.33 1.99 12.66 2.98 13 4 C13.66 4.33 14.32 4.66 15 5 C9.88634986 3.9318153 4.92772031 2.76892524 0 1 C0 0.67 0 0.34 0 0 Z " fill="#F4D7F2" transform="translate(517,497)"/>
<path d="M0 0 C2.97 0 5.94 0 9 0 C9 1.32 9 2.64 9 4 C5.7 3.34 2.4 2.68 -1 2 C-0.67 1.34 -0.34 0.68 0 0 Z " fill="#EF6FF8" transform="translate(510,488)"/>
<path d="M0 0 C0.33 0.66 0.66 1.32 1 2 C-0.21484375 4.3828125 -0.21484375 4.3828125 -1.9375 7.125 C-2.50339844 8.03507813 -3.06929687 8.94515625 -3.65234375 9.8828125 C-4.09707031 10.58148437 -4.54179688 11.28015625 -5 12 C-6.15625 8.3203125 -6.15625 8.3203125 -4.75 5.4375 C-3.28037825 3.39052685 -1.86202325 1.6846877 0 0 Z " fill="#F3F3F3" transform="translate(604,518)"/>
<path d="M0 0 C2 1 2 1 2.8515625 2.890625 C5.41509434 10.71069182 5.41509434 10.71069182 5 15 C3.66666667 12.33333333 2.33333333 9.66666667 1 7 C0.67 7 0.34 7 0 7 C-0.38133299 5.0085944 -0.71325582 3.00720923 -1 1 C-0.67 0.67 -0.34 0.34 0 0 Z " fill="#F1CBF0" transform="translate(535,553)"/>
<path d="M0 0 C2.31 0.33 4.62 0.66 7 1 C6.67 2.32 6.34 3.64 6 5 C3.03 4.505 3.03 4.505 0 4 C0 2.68 0 1.36 0 0 Z " fill="#FA82F6" transform="translate(519,488)"/>
<path d="M0 0 C0 3.39593478 -0.52165948 4.06619881 -2.5 6.6875 C-2.9640625 7.31011719 -3.428125 7.93273437 -3.90625 8.57421875 C-4.2671875 9.04472656 -4.628125 9.51523437 -5 10 C-5.33 9.34 -5.66 8.68 -6 8 C-4.75 4.4375 -4.75 4.4375 -3 1 C-2.01 0.67 -1.02 0.34 0 0 Z " fill="#F4F1F4" transform="translate(554,594)"/>
<path d="M0 0 C-1.1858237 3.37503669 -2.27573689 5.64722731 -5 8 C-6 5 -6 5 -5.1875 2.875 C-3.68508471 0.50276534 -2.80531948 0 0 0 Z " fill="#F5F4F5" transform="translate(596,533)"/>
<path d="M0 0 C0.33 0.66 0.66 1.32 1 2 C1.66 2 2.32 2 3 2 C3 5.3 3 8.6 3 12 C2.34 11.67 1.68 11.34 1 11 C0.5859375 8.49609375 0.5859375 8.49609375 0.375 5.4375 C0.30023437 4.42558594 0.22546875 3.41367187 0.1484375 2.37109375 C0.09945312 1.58863281 0.05046875 0.80617188 0 0 Z " fill="#CDA7F1" transform="translate(621,521)"/>
<path d="M0 0 C0 3.67168136 -0.78368346 6.54310037 -2 10 C-2.99 10.33 -3.98 10.66 -5 11 C-4.54917531 9.53932801 -4.08906463 8.08151968 -3.625 6.625 C-3.36976563 5.81289063 -3.11453125 5.00078125 -2.8515625 4.1640625 C-2 2 -2 2 0 0 Z " fill="#D7B6F2" transform="translate(470,477)"/>
<path d="M0 0 C1.27609323 0.90933009 2.54565553 1.82782853 3.8125 2.75 C4.87404297 3.51570312 4.87404297 3.51570312 5.95703125 4.296875 C8.02977691 6.02482358 9.47375854 7.78526476 11 10 C6.23439379 8.59835111 3.04117557 5.84588526 0 2 C0 1.34 0 0.68 0 0 Z " fill="#C792FA" transform="translate(472,527)"/>
<path d="M0 0 C1.60080151 4.00200378 0.29279692 7.04556236 -1 11 C-1.66 11 -2.32 11 -3 11 C-2.25 3.375 -2.25 3.375 0 0 Z " fill="#EFEAF3" transform="translate(531,436)"/>
<path d="M0 0 C0.66 1.32 1.32 2.64 2 4 C2.66 4 3.32 4 4 4 C4 4.66 4 5.32 4 6 C3.34 6 2.68 6 2 6 C2.33 7.32 2.66 8.64 3 10 C1.5 8.9375 1.5 8.9375 0 7 C-0.1875 3.3125 -0.1875 3.3125 0 0 Z " fill="#E3CDF7" transform="translate(465,514)"/>
<path d="M0 0 C1.66519519 0.34060811 3.33157466 0.67558396 5 1 C5 1.33 5 1.66 5 2 C1.37 2 -2.26 2 -6 2 C-6 1.34 -6 0.68 -6 0 C-3.44211818 -1.27894091 -2.70140697 -0.77183056 0 0 Z " fill="#CF6BFB" transform="translate(587,490)"/>
<path d="M0 0 C1.32 0 2.64 0 4 0 C3.67 0.99 3.34 1.98 3 3 C1.25 3.5625 1.25 3.5625 -1 4 C-2.6744239 4.6469365 -4.34302621 5.30959426 -6 6 C-4 4 -2 2 0 0 Z " fill="#E7D2F6" transform="translate(580,575)"/>
<path d="M0 0 C3.21029714 1.10699901 4.00968977 2.01603825 5.8125 5 C6.204375 5.99 6.59625 6.98 7 8 C6.67 8.66 6.34 9.32 6 10 C4.99421411 8.71283353 3.99553202 7.42011342 3 6.125 C2.443125 5.40570312 1.88625 4.68640625 1.3125 3.9453125 C0 2 0 2 0 0 Z " fill="#F2E9F2" transform="translate(515,564)"/>
<path d="M0 0 C3.465 1.98 3.465 1.98 7 4 C5.3125 4.6875 5.3125 4.6875 3 5 C0.25 3.5625 0.25 3.5625 -2 2 C-1.34 1.34 -0.68 0.68 0 0 Z " fill="#E7D7F6" transform="translate(483,536)"/>
<path d="M0 0 C0.99 0 1.98 0 3 0 C3 0.99 3 1.98 3 3 C3.99 3.33 4.98 3.66 6 4 C4.02 4.66 2.04 5.32 0 6 C0 4.02 0 2.04 0 0 Z " fill="#FD9AF6" transform="translate(553,495)"/>
<path d="M0 0 C3.63 0 7.26 0 11 0 C10.01 1.485 10.01 1.485 9 3 C6.625 3.375 6.625 3.375 4 3 C2.68 2.01 1.36 1.02 0 0 Z " fill="#D9A2F8" transform="translate(601,485)"/>
<path d="M0 0 C2.9375 1.25 2.9375 1.25 6 3 C6.875 5.1875 6.875 5.1875 7 7 C4.20171644 6.61402985 3.1794116 6.19863427 1.25 4.0625 C0 2 0 2 0 0 Z " fill="#F6DEF6" transform="translate(535,593)"/>
<path d="M0 0 C0.99 0.33 1.98 0.66 3 1 C1.68 1.99 0.36 2.98 -1 4 C-0.67 2.68 -0.34 1.36 0 0 Z " fill="#F8F7F9" transform="translate(477,474)"/>
<path d="M0 0 C0.66 0 1.32 0 2 0 C2 0.99 2 1.98 2 3 C3.98 3 5.96 3 8 3 C8 3.33 8 3.66 8 4 C5.03 4 2.06 4 -1 4 C-0.67 2.68 -0.34 1.36 0 0 Z " fill="#E4A4FC" transform="translate(572,491)"/>
</svg>
